<svg class="background-waves" xmlns="http://www.w3.org/2000/svg" viewBox="0 0 1142 191.95">
      <path fill="#6085F1" d="M0,68a66.12,66.12,0,0,1,31-9c9.16-.22,18.57,2.52,37,8,22.38,6.65,24.62,8.91,33,9,15.83.17,27.7-7.66,33-11,21.87-13.81,96.08-55,156-63,11.35-1.52,60.05-8,106,16,10,5.21,51.77,28.57,74,51a119.08,119.08,0,0,0,33,24,70.55,70.55,0,0,0,12,5c18,5.14,34.73-1.46,56-10,18.13-7.29,20.67-10.74,32-12a67.94,67.94,0,0,1,28,3c33.49,10.17,68.42,30.87,82,38,48.15,25.24,100.71,20.44,105,20,47.69-4.92,87.7-30.42,109-44,14.28-9.11,17.73-13,35-23,12.6-7.34,39-22.47,74-33a304.08,304.08,0,0,1,106-12l-1,167H0Z"/>
</svg>